<svg width="48" height="48" viewBox="0 0 48 48" fill="none" xmlns="http://www.w3.org/2000/svg">
<rect width="48" height="48" rx="15" fill="#474747"/>
<path d="M24 44C21.2333 44 18.6333 43.475 16.2 42.425C13.7667 41.375 11.65 39.95 9.85 38.15C8.05 36.35 6.625 34.2333 5.575 31.8C4.525 29.3667 4 26.7667 4 24C4 21.2333 4.525 18.6333 5.575 16.2C6.625 13.7667 8.05 11.65 9.85 9.85C11.65 8.05 13.7667 6.625 16.2 5.575C18.6333 4.525 21.2333 4 24 4C26.1667 4 28.2167 4.31667 30.15 4.95C31.2837 5.32138 32.3658 5.77873 33.3963 6.32204C34.5347 6.92222 34.6756 8.43864 33.7734 9.35637V9.35637C33.0886 10.053 32.0164 10.1651 31.1439 9.72587C30.3119 9.307 29.4473 8.95671 28.55 8.675C27.1167 8.225 25.6 8 24 8C19.5667 8 15.7917 9.55833 12.675 12.675C9.55833 15.7917 8 19.5667 8 24C8 28.4333 9.55833 32.2083 12.675 35.325C15.7917 38.4417 19.5667 40 24 40C28.4333 40 32.2083 38.4417 35.325 35.325C38.4417 32.2083 40 28.4333 40 24C40 23.4 39.9667 22.8 39.9 22.2C39.8781 22.0031 39.8527 21.808 39.8236 21.6147C39.714 20.8854 39.9173 20.1327 40.4388 19.6112V19.6112C41.5521 18.4979 43.4264 18.9496 43.7 20.5V20.5C43.9 21.6333 44 22.8 44 24C44 26.7667 43.475 29.3667 42.425 31.8C41.375 34.2333 39.95 36.35 38.15 38.15C36.35 39.95 34.2333 41.375 31.8 42.425C29.3667 43.475 26.7667 44 24 44ZM24.0284 30.3654C22.4668 31.9304 19.9318 31.9318 18.3685 30.3685L14.1 26.1C13.3268 25.3268 13.3268 24.0732 14.1 23.3V23.3C14.8732 22.5268 16.1268 22.5268 16.9 23.3L18.368 24.768C19.9315 26.3315 22.4669 26.3299 24.0284 24.7645L39.8001 8.95339C40.573 8.1786 41.8278 8.17782 42.6016 8.95164V8.95164C43.3742 9.72418 43.3749 10.9765 42.6032 11.7499L24.0284 30.3654Z" fill="white"/>
</svg>
